<svg width="24" height="24" viewBox="0 0 24 24" fill="none" xmlns="http://www.w3.org/2000/svg">
<rect width="24" height="24" rx="8" fill="#E5E5E5"/>
<path d="M9.375 4V4.875H5V6.625H5.875V18C5.875 18.4641 6.05937 18.9092 6.38756 19.2374C6.71575 19.5656 7.16087 19.75 7.625 19.75H16.375C16.8391 19.75 17.2842 19.5656 17.6124 19.2374C17.9406 18.9092 18.125 18.4641 18.125 18V6.625H19V4.875H14.625V4H9.375ZM7.625 6.625H16.375V18H7.625V6.625ZM9.375 8.375V16.25H11.125V8.375H9.375ZM12.875 8.375V16.25H14.625V8.375H12.875Z" fill="#EB5757"/>
</svg>
