<svg id="Слой_1" data-name="Слой 1" xmlns="http://www.w3.org/2000/svg" viewBox="0 0 136.06 136.06"><defs><style>.cls-1{fill:#1b1c20;}.cls-2,.cls-3{fill:#fdca00;}.cls-3{stroke:#fdca00;stroke-miterlimit:10;stroke-width:4px;}</style></defs><path class="cls-1" d="M107.53,56.1l11.74-10.91c1.94-1.8,4.15-3.64,4.15-7,0-2.58-1.48-5.16-4.88-5.16-3.92,0-5.48,3.55-5.25,6.59h-6.12c-.23-6.08,3.17-12.39,11.18-12.39,6.35,0,11.19,4.24,11.19,11.05,0,4.06-1.89,7.51-6.95,12l-6.49,5.8h13.44v5.8h-22Z"/><path class="cls-2" d="M58.07,78.66,31.24,27.1H47.8L65.69,64.75,83.47,27.1H100L73.2,78.66v30.15H58.07Z"/><polygon class="cls-1" points="33.24 68.03 7.87 26.91 7.87 49.25 19.46 68.03 7.87 86.81 7.87 109.15 33.24 68.03"/><polygon class="cls-3" points="4.78 4.58 131.7 4.58 131.7 22.9 136.27 22.9 136.27 0 0.21 0 0.21 22.9 4.78 22.9 4.78 4.58"/><polygon class="cls-3" points="131.7 131.49 4.78 131.49 4.78 113.16 0.21 113.16 0.21 136.06 136.27 136.06 136.27 113.16 131.7 113.16 131.7 131.49"/></svg>