<svg width="160" height="89" viewBox="0 0 160 89" fill="none" xmlns="http://www.w3.org/2000/svg">
<path d="M33.9812 3.01269H116.865V14.9379H119.875V0H30.9718V14.9379H33.9812V3.01269Z" fill="#F0C900"/>
<path d="M116.865 85.9873H33.9812V73.9365H30.9718V89H119.875V73.9365H116.865V85.9873Z" fill="#F0C900"/>
<path d="M150.721 35.1481L155.486 30.7546C156.238 30.0014 157.116 29.2482 157.116 27.8674C157.116 26.8632 156.489 25.7334 155.11 25.7334C153.48 25.7334 152.853 27.1143 152.978 28.3695H150.47C150.345 25.859 151.724 23.3484 154.984 23.3484C157.492 23.3484 159.498 25.1058 159.498 27.8674C159.498 29.4993 158.746 30.8801 156.74 32.7631L154.107 35.1481H159.498V37.5332H150.596V35.1481H150.721Z" fill="black"/>
<path d="M20.6896 49.9605L6.89655 23.3484H15.4232L24.7022 42.8054L33.8558 23.3484H42.3824L28.5893 49.9605V65.5261H20.815V49.9605H20.6896Z" fill="#F0C900"/>
<path d="M50.6583 23.3484H56.9279L74.4827 65.5261H65.8307L61.442 54.6051H46.0188L41.6301 65.5261H32.978L50.6583 23.3484ZM58.558 47.0734L53.7931 34.7715L48.9028 47.0734H58.558Z" fill="#F0C900"/>
<path d="M78.9968 23.3484H91.1598C105.329 23.3484 106.959 32.7631 106.959 36.78C106.959 43.5585 102.445 49.3329 95.5485 49.9605L107.461 65.5261H97.8056L86.8965 49.9605H86.7711V65.5261H78.9968V23.3484ZM86.7711 43.433H91.4106C93.2915 43.433 99.1849 43.3075 99.1849 37.1566C99.1849 31.0057 93.1661 30.8801 91.4106 30.8801H86.7711V43.433Z" fill="#F0C900"/>
<path d="M112.1 23.3484H123.762C143.197 23.3484 146.332 36.5289 146.332 44.6883C146.332 49.2073 145.204 65.5261 123.887 65.5261H111.975V23.3484H112.1ZM123.636 57.9944C127.9 57.9944 138.558 57.4922 138.558 44.6883C138.558 31.3822 127.524 30.8801 123.26 30.8801H119.875V57.8688H123.636V57.9944Z" fill="#F0C900"/>
<path d="M9.27898 44.4373L0.37616 30.127V37.9097L4.3887 44.4373L0.37616 51.0903V58.8731L9.27898 44.4373Z" fill="black"/>
</svg>
